<?xml version="1.0" encoding="UTF-8" ?>
<!DOCTYPE svg PUBLIC "-//W3C//DTD SVG 1.1//EN" "http://www.w3.org/Graphics/SVG/1.1/DTD/svg11.dtd">
<svg width="1280pt" height="373pt" viewBox="0 0 1280 373" version="1.1" xmlns="http://www.w3.org/2000/svg">
<g id="#191919ff">
<path fill="#191919" opacity="1.00" d=" M 50.66 6.21 C 57.52 1.20 66.71 -1.36 74.93 1.63 C 84.05 4.48 90.46 11.94 96.90 18.56 C 99.69 23.91 103.26 28.81 105.86 34.27 C 117.04 56.66 123.13 81.17 127.69 105.66 C 128.43 110.92 129.19 116.17 129.67 121.46 C 127.94 118.91 126.12 116.43 124.47 113.83 C 121.93 109.74 119.20 105.79 116.54 101.79 C 113.63 97.10 110.43 92.61 107.33 88.06 C 103.60 81.92 99.30 76.17 95.32 70.19 C 93.75 67.57 92.27 64.90 90.56 62.38 C 79.44 46.53 70.00 29.44 57.24 14.78 C 54.98 11.98 52.85 9.07 50.66 6.21 Z" />
<path fill="#191919" opacity="1.00" d=" M 874.95 191.21 C 888.94 190.37 902.97 190.58 916.99 190.19 C 933.53 189.31 950.11 189.86 966.65 189.13 C 969.49 189.75 972.34 190.34 975.23 190.74 C 964.17 189.85 953.07 190.73 942.00 190.78 C 926.68 191.52 911.32 191.45 896.00 192.26 C 876.67 192.29 857.37 194.16 838.04 193.57 C 840.68 193.86 843.33 194.17 845.99 194.47 C 830.66 193.68 815.35 195.44 800.02 195.62 C 680.21 201.10 560.26 208.52 441.48 225.81 C 375.08 235.76 308.81 248.66 245.16 270.42 C 207.60 283.39 170.90 299.65 137.78 321.78 C 122.79 331.63 108.98 343.13 95.84 355.31 C 97.41 352.85 98.89 350.34 100.44 347.87 C 102.74 344.36 104.80 340.68 106.60 336.89 C 108.18 333.74 109.64 330.53 110.95 327.26 C 112.92 322.60 114.75 317.87 116.30 313.05 C 117.55 309.11 118.87 305.19 119.92 301.20 C 122.49 291.75 124.81 282.23 126.59 272.60 C 127.39 274.17 128.18 275.76 128.96 277.35 C 136.48 280.93 144.99 279.88 153.04 279.80 C 159.82 279.04 166.47 277.38 173.17 276.14 C 201.03 268.80 228.64 260.57 256.59 253.59 C 261.21 252.52 267.35 252.22 269.20 246.94 C 270.19 244.93 271.09 242.87 272.01 240.82 C 272.21 240.35 272.61 239.42 272.80 238.95 C 273.14 239.24 273.83 239.81 274.17 240.09 C 273.10 243.02 271.91 245.91 270.92 248.87 C 281.15 247.10 291.16 244.28 301.34 242.28 C 317.85 238.93 334.37 235.61 350.99 232.82 C 367.50 229.73 384.20 227.76 400.70 224.61 C 402.60 223.68 404.08 222.11 405.36 220.46 C 413.62 220.47 421.74 218.71 429.94 217.91 C 455.56 215.26 481.17 212.13 506.86 210.30 C 507.33 210.30 508.26 210.31 508.72 210.32 C 512.83 210.58 516.93 210.19 521.02 209.73 C 534.12 208.52 547.23 207.46 560.35 206.44 C 569.82 205.47 579.38 205.64 588.82 204.36 C 590.62 204.29 591.46 202.43 592.64 201.36 C 592.75 201.24 592.95 201.02 593.05 200.90 L 594.11 199.85 C 593.76 201.01 593.43 202.18 593.12 203.36 C 605.07 202.40 617.05 201.74 629.03 201.14 C 638.95 200.11 648.98 200.50 658.87 199.08 C 659.80 198.54 660.67 197.91 661.49 197.19 L 661.86 197.79 C 662.14 198.21 662.69 199.03 662.97 199.44 C 666.95 198.96 670.96 198.53 674.98 198.48 C 683.33 198.49 691.62 197.23 699.98 197.41 C 707.69 197.58 715.31 195.54 723.02 196.26 C 729.36 196.49 735.65 195.28 742.00 195.47 C 751.34 195.62 760.63 194.26 769.97 194.42 C 778.35 194.58 786.69 193.37 795.07 193.51 C 798.92 193.59 802.76 193.16 806.55 192.46 L 807.05 192.47 C 819.36 192.61 831.71 192.68 843.99 191.67 C 854.30 191.43 864.63 191.53 874.95 191.21 Z" />
</g>
<g id="#2d2d2dff">
<path fill="#2d2d2d" opacity="1.00" d=" M 37.17 20.26 C 40.93 14.94 45.37 10.04 50.66 6.21 C 52.85 9.07 54.98 11.98 57.24 14.78 C 70.00 29.44 79.44 46.53 90.56 62.38 C 92.27 64.90 93.75 67.57 95.32 70.19 C 89.74 67.52 85.00 63.45 79.85 60.08 C 69.20 51.51 58.28 43.09 49.23 32.77 C 45.03 28.76 41.70 23.93 37.17 20.26 Z" />
</g>
<g id="#5a5a5aff">
<path fill="#5a5a5a" opacity="1.00" d=" M 96.90 18.56 C 107.27 28.39 118.28 37.55 129.95 45.82 C 128.62 47.14 126.36 48.02 126.15 50.11 C 126.06 53.50 127.15 56.76 127.91 60.03 C 132.07 76.24 136.39 92.43 141.77 108.29 C 144.30 115.74 146.20 123.44 149.42 130.65 C 153.51 139.70 155.91 149.48 160.84 158.15 C 165.73 166.22 169.14 175.24 175.83 182.10 C 184.05 193.55 196.05 201.74 208.99 206.98 C 217.95 210.56 227.54 212.08 237.01 213.63 C 251.12 214.46 265.20 216.31 279.37 215.89 C 279.31 216.31 279.20 217.14 279.14 217.56 C 278.63 219.77 278.01 221.95 277.43 224.14 C 270.24 223.72 263.16 225.48 255.97 225.12 C 242.76 224.79 229.41 226.11 216.33 223.66 C 206.18 222.28 195.72 220.46 186.82 215.08 C 180.92 211.55 175.00 207.81 170.38 202.65 C 167.52 199.45 165.05 195.95 162.38 192.60 C 158.50 187.82 156.33 182.00 153.30 176.71 C 148.60 168.38 145.76 159.20 142.64 150.21 C 138.60 139.93 135.17 129.40 132.56 118.66 C 131.49 114.13 129.50 109.92 127.69 105.66 C 123.13 81.17 117.04 56.66 105.86 34.27 C 103.26 28.81 99.69 23.91 96.90 18.56 Z" />
<path fill="#5a5a5a" opacity="1.00" d=" M 522.02 199.09 C 546.25 197.92 570.48 197.00 594.72 195.93 C 594.19 197.60 593.61 199.25 593.05 200.90 C 592.95 201.02 592.75 201.24 592.64 201.36 C 588.33 200.78 583.99 201.02 579.68 201.42 C 560.12 202.56 540.57 203.69 521.04 205.32 C 517.87 205.60 514.69 205.58 511.51 205.49 C 511.69 205.04 512.03 204.16 512.20 203.71 C 513.07 201.48 513.94 199.24 514.61 196.94 C 514.76 197.42 515.07 198.37 515.22 198.85 C 517.48 199.08 519.75 199.17 522.02 199.09 Z" />
</g>
<g id="#404040ff">
<path fill="#404040" opacity="1.00" d=" M 29.85 32.20 C 32.03 28.07 34.50 24.09 37.17 20.26 C 41.70 23.93 45.03 28.76 49.23 32.77 C 58.28 43.09 69.20 51.51 79.85 60.08 C 85.00 63.45 89.74 67.52 95.32 70.19 C 99.30 76.17 103.60 81.92 107.33 88.06 C 98.90 85.58 91.78 80.18 84.34 75.70 C 75.55 70.78 67.72 64.40 59.54 58.56 C 51.51 51.95 43.38 45.37 36.31 37.71 C 34.35 35.65 32.13 33.89 29.85 32.20 Z" />
</g>
<g id="#4e4e4eff">
<path fill="#4e4e4e" opacity="1.00" d=" M 29.85 32.20 C 32.13 33.89 34.35 35.65 36.31 37.71 C 43.38 45.37 51.51 51.95 59.54 58.56 C 67.72 64.40 75.55 70.78 84.34 75.70 C 91.78 80.18 98.90 85.58 107.33 88.06 C 110.43 92.61 113.63 97.10 116.54 101.79 C 108.61 99.10 101.37 94.87 93.90 91.16 C 81.77 85.34 70.34 78.19 59.15 70.75 C 47.14 62.08 34.96 53.44 24.87 42.49 C 26.41 39.00 28.08 35.58 29.85 32.20 Z" />
</g>
<g id="#5b5b5bff">
<path fill="#5b5b5b" opacity="1.00" d=" M 24.87 42.49 C 34.96 53.44 47.14 62.08 59.15 70.75 C 70.34 78.19 81.77 85.34 93.90 91.16 C 101.37 94.87 108.61 99.10 116.54 101.79 C 119.20 105.79 121.93 109.74 124.47 113.83 C 97.30 104.39 71.44 91.36 47.33 75.71 C 37.58 69.79 28.72 62.55 19.71 55.58 C 21.26 51.15 23.01 46.79 24.87 42.49 Z" />
</g>
<g id="#686868ff">
<path fill="#686868" opacity="1.00" d=" M 129.95 45.82 C 141.63 54.27 154.07 61.61 166.59 68.73 C 162.32 68.20 158.25 66.59 153.97 66.16 C 151.14 65.78 149.64 69.05 149.49 71.41 C 149.22 78.37 151.34 85.13 153.37 91.70 C 156.23 100.74 158.52 109.97 162.26 118.70 C 165.65 126.57 168.59 134.66 173.01 142.03 C 180.28 155.72 188.75 169.24 200.96 179.06 C 207.69 185.06 215.79 189.23 223.86 193.10 C 233.79 197.95 244.87 199.36 255.58 201.54 C 263.91 203.39 272.54 202.97 280.87 204.90 C 280.44 208.57 279.87 212.22 279.37 215.89 C 265.20 216.31 251.12 214.46 237.01 213.63 C 227.54 212.08 217.95 210.56 208.99 206.98 C 196.05 201.74 184.05 193.55 175.83 182.10 C 169.14 175.24 165.73 166.22 160.84 158.15 C 155.91 149.48 153.51 139.70 149.42 130.65 C 146.20 123.44 144.30 115.74 141.77 108.29 C 136.39 92.43 132.07 76.24 127.91 60.03 C 127.15 56.76 126.06 53.50 126.15 50.11 C 126.36 48.02 128.62 47.14 129.95 45.82 Z" />
</g>
<g id="#696969ff">
<path fill="#696969" opacity="1.00" d=" M 19.71 55.58 C 28.72 62.55 37.58 69.79 47.33 75.71 C 71.44 91.36 97.30 104.39 124.47 113.83 C 126.12 116.43 127.94 118.91 129.67 121.46 C 129.93 122.99 130.19 124.52 130.43 126.06 C 123.79 124.68 117.49 122.11 111.10 119.91 C 92.01 113.57 73.78 104.99 55.69 96.27 C 44.71 90.42 33.96 84.14 23.58 77.29 C 20.72 75.32 17.60 73.77 14.38 72.46 C 15.95 66.77 17.75 61.15 19.71 55.58 Z" />
<path fill="#696969" opacity="1.00" d=" M 595.60 198.28 C 596.36 196.40 596.97 194.46 597.44 192.49 C 605.88 194.17 614.48 192.72 622.99 192.70 C 636.37 192.05 649.78 192.52 663.17 191.73 C 662.70 193.23 662.21 194.71 661.77 196.22 C 649.52 196.38 637.27 196.65 625.06 197.54 C 615.21 197.20 605.43 199.42 595.60 198.28 Z" />
</g>
<g id="#777777ff">
<path fill="#777777" opacity="1.00" d=" M 149.49 71.41 C 149.64 69.05 151.14 65.78 153.97 66.16 C 158.25 66.59 162.32 68.20 166.59 68.73 C 185.40 78.79 204.92 87.45 224.75 95.29 C 219.36 95.98 214.84 92.60 209.92 91.11 C 201.69 88.43 193.61 84.89 184.92 84.04 C 181.58 83.76 177.16 84.31 175.87 87.97 C 173.99 92.67 175.61 97.86 176.53 102.61 C 179.18 111.68 182.36 120.67 187.06 128.91 C 191.45 136.40 195.35 144.29 201.31 150.71 C 215.31 169.57 236.92 181.67 259.42 187.42 C 265.55 189.46 272.04 189.99 278.21 191.85 C 280.12 192.19 281.08 193.92 281.57 195.63 C 281.50 198.73 281.22 201.82 280.87 204.90 C 272.54 202.97 263.91 203.39 255.58 201.54 C 244.87 199.36 233.79 197.95 223.86 193.10 C 215.79 189.23 207.69 185.06 200.96 179.06 C 188.75 169.24 180.28 155.72 173.01 142.03 C 168.59 134.66 165.65 126.57 162.26 118.70 C 158.52 109.97 156.23 100.74 153.37 91.70 C 151.34 85.13 149.22 78.37 149.49 71.41 Z" />
<path fill="#777777" opacity="1.00" d=" M 458.97 194.93 C 464.67 194.74 470.35 193.98 476.08 194.14 C 488.49 194.34 500.91 193.61 513.33 194.05 C 512.89 195.75 512.45 197.46 512.06 199.17 C 506.37 199.07 500.70 199.52 495.04 200.01 C 470.47 200.59 445.97 202.71 421.41 203.50 C 418.14 203.79 414.85 203.77 411.58 203.43 C 412.19 200.66 412.62 197.86 413.04 195.06 C 428.35 195.31 443.66 195.05 458.97 194.93 Z" />
</g>
<g id="#787878ff">
<path fill="#787878" opacity="1.00" d=" M 14.38 72.46 C 17.60 73.77 20.72 75.32 23.58 77.29 C 33.96 84.14 44.71 90.42 55.69 96.27 C 73.78 104.99 92.01 113.57 111.10 119.91 C 117.49 122.11 123.79 124.68 130.43 126.06 C 131.24 131.06 131.72 136.10 132.18 141.15 C 131.31 139.36 130.49 137.17 128.33 136.66 C 122.03 134.44 115.40 133.29 109.10 131.03 C 84.51 123.86 60.66 114.34 37.44 103.55 C 28.38 98.78 18.88 94.85 10.18 89.39 C 11.40 83.71 12.85 78.07 14.38 72.46 Z" />
</g>
<g id="#848484ff">
<path fill="#848484" opacity="1.00" d=" M 175.87 87.97 C 177.16 84.31 181.58 83.76 184.92 84.04 C 193.61 84.89 201.69 88.43 209.92 91.11 C 214.84 92.60 219.36 95.98 224.75 95.29 C 276.49 114.78 330.42 127.85 384.74 137.80 C 386.60 138.42 388.40 139.18 390.21 139.95 C 382.69 139.76 375.40 137.81 367.99 136.80 C 350.00 133.27 331.92 130.15 314.06 125.95 C 299.95 123.30 285.97 120.00 271.90 117.14 C 270.01 116.84 267.82 116.06 266.23 117.60 C 263.68 114.29 260.91 111.11 257.59 108.56 C 257.13 108.49 256.22 108.35 255.76 108.28 C 241.32 106.50 227.67 99.84 212.97 99.90 C 209.48 100.00 204.60 100.54 203.56 104.59 C 202.35 109.71 203.27 115.15 204.95 120.06 C 213.44 140.57 229.98 157.26 249.61 167.33 C 259.17 173.19 270.17 175.79 280.56 179.70 C 280.81 177.70 281.08 175.71 281.37 173.73 L 281.56 172.81 C 281.81 180.60 281.70 188.40 281.76 196.19 L 281.57 195.63 C 281.08 193.92 280.12 192.19 278.21 191.85 C 272.04 189.99 265.55 189.46 259.42 187.42 C 236.92 181.67 215.31 169.57 201.31 150.71 C 195.35 144.29 191.45 136.40 187.06 128.91 C 182.36 120.67 179.18 111.68 176.53 102.61 C 175.61 97.86 173.99 92.67 175.87 87.97 Z" />
</g>
<g id="#898989ff">
<path fill="#898989" opacity="1.00" d=" M 5.52 114.68 C 6.77 106.19 8.38 97.77 10.18 89.39 C 18.88 94.85 28.38 98.78 37.44 103.55 C 60.66 114.34 84.51 123.86 109.10 131.03 C 115.40 133.29 122.03 134.44 128.33 136.66 C 130.49 137.17 131.31 139.36 132.18 141.15 C 132.68 146.55 133.06 151.97 133.30 157.39 C 132.77 155.46 132.14 153.56 131.53 151.66 C 108.87 146.37 86.12 141.33 63.99 134.04 C 53.49 131.18 43.31 127.30 32.94 124.01 C 23.88 120.70 14.95 116.87 5.52 114.68 Z" />
<path fill="#898989" opacity="1.00" d=" M 413.34 186.76 C 418.56 186.78 423.78 186.63 429.00 186.92 C 441.00 187.53 453.03 186.63 465.00 187.79 C 481.35 187.98 497.71 188.11 514.07 188.05 C 513.99 189.35 513.90 190.65 513.82 191.95 C 513.70 192.48 513.45 193.52 513.33 194.05 C 500.91 193.61 488.49 194.34 476.08 194.14 C 470.35 193.98 464.67 194.74 458.97 194.93 C 443.66 195.05 428.35 195.31 413.04 195.06 C 413.17 192.29 413.30 189.53 413.34 186.76 Z" />
</g>
<g id="#909090ff">
<path fill="#909090" opacity="1.00" d=" M 203.56 104.59 C 204.60 100.54 209.48 100.00 212.97 99.90 C 227.67 99.84 241.32 106.50 255.76 108.28 C 259.74 111.39 263.04 115.27 265.70 119.56 C 260.37 120.22 253.83 118.38 249.62 122.61 C 246.48 125.45 247.82 130.20 249.24 133.58 C 251.48 139.33 256.61 143.02 260.99 147.05 C 266.48 152.11 273.15 155.58 279.68 159.08 C 280.50 163.93 281.13 168.81 281.37 173.73 C 281.08 175.71 280.81 177.70 280.56 179.70 C 270.17 175.79 259.17 173.19 249.61 167.33 C 229.98 157.26 213.44 140.57 204.95 120.06 C 203.27 115.15 202.35 109.71 203.56 104.59 Z" />
</g>
<g id="#4c4c4cff">
<path fill="#4c4c4c" opacity="1.00" d=" M 127.69 105.66 C 129.50 109.92 131.49 114.13 132.56 118.66 C 135.17 129.40 138.60 139.93 142.64 150.21 C 145.76 159.20 148.60 168.38 153.30 176.71 C 156.33 182.00 158.50 187.82 162.38 192.60 C 165.05 195.95 167.52 199.45 170.38 202.65 C 175.00 207.81 180.92 211.55 186.82 215.08 C 195.72 220.46 206.18 222.28 216.33 223.66 C 229.41 226.11 242.76 224.79 255.97 225.12 C 263.16 225.48 270.24 223.72 277.43 224.14 C 276.69 226.85 275.98 229.58 275.19 232.28 C 263.93 234.81 252.35 235.38 240.91 236.66 C 231.38 238.62 221.62 237.75 211.97 237.93 C 203.53 237.89 194.94 238.55 186.66 236.49 C 173.65 233.67 161.01 226.76 153.39 215.59 C 150.85 212.12 148.08 208.76 146.31 204.80 C 142.92 197.13 138.21 189.93 136.49 181.62 C 135.62 176.72 135.32 171.75 134.39 166.86 C 134.26 167.43 134.00 168.57 133.87 169.14 C 133.80 167.90 133.72 166.66 133.67 165.42 C 133.54 162.74 133.48 160.07 133.30 157.39 C 133.06 151.97 132.68 146.55 132.18 141.15 C 131.72 136.10 131.24 131.06 130.43 126.06 C 130.19 124.52 129.93 122.99 129.67 121.46 C 129.19 116.17 128.43 110.92 127.69 105.66 Z" />
</g>
<g id="#96004bff">
<path fill="#96004b" opacity="1.00" d=" M 255.76 108.28 C 256.22 108.35 257.13 108.49 257.59 108.56 C 260.91 111.11 263.68 114.29 266.23 117.60 C 274.37 129.10 278.68 142.84 281.40 156.54 C 281.98 159.93 282.56 163.34 282.95 166.76 C 282.55 168.79 281.99 170.79 281.56 172.81 L 281.37 173.73 C 281.13 168.81 280.50 163.93 279.68 159.08 C 277.28 145.27 273.25 131.48 265.70 119.56 C 263.04 115.27 259.74 111.39 255.76 108.28 Z" />
<path fill="#96004b" opacity="1.00" d=" M 716.83 176.25 C 717.02 176.19 717.39 176.07 717.58 176.01 C 719.43 178.79 721.05 181.79 721.58 185.13 C 721.46 186.53 721.31 187.92 721.12 189.31 C 720.90 190.40 720.68 191.49 720.47 192.59 L 720.08 192.32 C 720.14 191.78 720.27 190.71 720.34 190.18 C 720.42 189.35 720.59 187.70 720.67 186.87 C 720.59 184.94 720.39 183.02 720.05 181.13 C 719.15 179.39 718.03 177.78 716.83 176.25 Z" />
<path fill="#96004b" opacity="1.00" d=" M 513.91 180.56 L 515.21 180.12 C 515.32 181.38 515.39 182.65 515.44 183.92 C 515.49 186.52 515.43 189.13 515.15 191.72 C 515.09 192.20 514.99 193.14 514.93 193.61 L 513.82 191.95 C 513.90 190.65 513.99 189.35 514.07 188.05 C 514.14 185.55 514.03 183.05 513.91 180.56 Z" />
</g>
<g id="#9a9a9aff">
<path fill="#9a9a9a" opacity="1.00" d=" M 5.52 114.68 C 14.95 116.87 23.88 120.70 32.94 124.01 C 43.31 127.30 53.49 131.18 63.99 134.04 C 86.12 141.33 108.87 146.37 131.53 151.66 C 132.14 153.56 132.77 155.46 133.30 157.39 C 133.48 160.07 133.54 162.74 133.67 165.42 C 127.05 165.25 120.58 163.74 114.07 162.72 C 98.85 160.02 83.71 156.88 68.65 153.43 C 46.43 149.74 24.87 142.79 2.49 139.96 C 3.17 131.50 4.33 123.08 5.52 114.68 Z" />
<path fill="#9a9a9a" opacity="1.00" d=" M 249.62 122.61 C 253.83 118.38 260.37 120.22 265.70 119.56 C 273.25 131.48 277.28 145.27 279.68 159.08 C 273.15 155.58 266.48 152.11 260.99 147.05 C 256.61 143.02 251.48 139.33 249.24 133.58 C 247.82 130.20 246.48 125.45 249.62 122.61 Z" />
</g>
<g id="#a1a1a1ff">
<path fill="#a1a1a1" opacity="1.00" d=" M 266.23 117.60 C 267.82 116.06 270.01 116.84 271.90 117.14 C 285.97 120.00 299.95 123.30 314.06 125.95 C 331.92 130.15 350.00 133.27 367.99 136.80 C 375.40 137.81 382.69 139.76 390.21 139.95 C 391.98 140.69 393.73 141.51 395.43 142.42 C 397.29 144.42 399.08 146.49 400.73 148.66 C 395.13 148.38 389.53 147.99 383.93 147.68 C 375.02 147.09 366.08 144.75 357.14 146.20 C 353.53 147.81 351.31 151.40 348.60 154.14 C 354.22 157.62 360.68 159.23 366.87 161.39 C 374.74 164.14 383.06 165.14 391.16 166.96 C 397.56 168.33 404.56 167.99 410.19 171.85 C 410.40 173.12 410.59 174.39 410.74 175.68 C 410.48 177.60 410.16 179.52 409.85 181.45 C 404.59 180.96 399.30 181.03 394.03 180.74 C 370.87 178.18 347.53 176.39 324.75 171.14 C 314.18 168.46 303.57 165.77 293.47 161.61 C 289.46 159.88 285.54 157.95 281.40 156.54 C 278.68 142.84 274.37 129.10 266.23 117.60 Z" />
<path fill="#a1a1a1" opacity="1.00" d=" M 588.28 164.45 C 610.42 166.40 632.59 168.06 654.76 169.71 C 655.60 170.45 656.45 171.20 657.30 171.95 C 638.54 170.89 619.78 169.64 601.05 168.21 C 597.89 168.05 594.73 168.14 591.59 168.23 C 590.51 166.94 589.38 165.70 588.28 164.45 Z" />
</g>
<g id="#6a4f5cc0">
<path fill="#6a4f5c" opacity="0.75" d=" M 384.74 137.80 C 389.29 138.46 393.82 139.24 398.30 140.28 C 397.41 140.32 395.62 140.41 394.72 140.45 C 395.24 141.12 396.28 142.47 396.80 143.14 L 395.43 142.42 C 393.73 141.51 391.98 140.69 390.21 139.95 C 388.40 139.18 386.60 138.42 384.74 137.80 Z" />
</g>
<g id="#a9a9a9ff">
<path fill="#a9a9a9" opacity="1.00" d=" M 2.49 139.96 C 24.87 142.79 46.43 149.74 68.65 153.43 C 83.71 156.88 98.85 160.02 114.07 162.72 C 120.58 163.74 127.05 165.25 133.67 165.42 C 133.72 166.66 133.80 167.90 133.87 169.14 C 134.20 174.48 134.33 179.83 134.27 185.18 C 133.72 183.92 133.14 182.66 132.33 181.54 C 124.98 179.41 117.26 179.18 109.70 178.31 C 103.24 176.92 96.61 176.82 90.13 175.62 C 81.83 174.27 73.36 174.32 65.11 172.68 C 60.12 171.76 55.00 171.94 50.02 170.94 C 44.67 169.84 39.18 169.95 33.78 169.30 C 22.92 167.62 11.75 167.10 0.84 168.60 C 0.91 167.40 0.96 166.21 1.01 165.01 C 1.15 156.64 1.68 148.29 2.49 139.96 Z" />
</g>
<g id="#8d8d8dff">
<path fill="#8d8d8d" opacity="1.00" d=" M 398.30 140.28 C 429.99 145.78 461.85 150.33 493.77 154.23 C 495.35 154.59 496.91 155.03 498.50 155.41 C 494.95 155.65 491.38 155.83 487.85 155.34 C 463.09 152.28 438.34 149.04 413.66 145.41 C 408.80 144.81 403.81 142.98 398.98 144.69 C 398.26 144.15 397.52 143.65 396.80 143.14 C 396.28 142.47 395.24 141.12 394.72 140.45 C 395.62 140.41 397.41 140.32 398.30 140.28 Z" />
</g>
<g id="#920b4dff">
<path fill="#920b4d" opacity="1.00" d=" M 395.43 142.42 L 396.80 143.14 C 397.52 143.65 398.26 144.15 398.98 144.69 C 401.38 147.19 403.44 150.00 405.20 152.99 C 409.07 159.86 411.37 167.54 412.51 175.31 C 413.01 179.11 413.37 182.93 413.34 186.76 C 413.30 189.53 413.17 192.29 413.04 195.06 C 412.49 195.29 411.37 195.76 410.81 195.99 C 411.08 194.03 411.29 192.06 411.41 190.09 C 411.64 185.27 411.39 180.45 410.74 175.68 C 410.59 174.39 410.40 173.12 410.19 171.85 C 408.55 163.63 405.75 155.46 400.73 148.66 C 399.08 146.49 397.29 144.42 395.43 142.42 Z" />
</g>
<g id="#a2a2a2ff">
<path fill="#a2a2a2" opacity="1.00" d=" M 398.98 144.69 C 403.81 142.98 408.80 144.81 413.66 145.41 C 438.34 149.04 463.09 152.28 487.85 155.34 C 491.38 155.83 494.95 155.65 498.50 155.41 C 498.73 155.43 499.19 155.48 499.41 155.50 C 501.00 156.97 502.63 158.41 504.19 159.92 C 490.80 158.48 477.35 157.66 464.00 155.93 C 449.99 154.63 436.06 152.59 422.02 151.67 C 417.67 151.39 413.41 150.10 409.04 150.23 C 407.61 150.92 406.44 152.03 405.20 152.99 C 403.44 150.00 401.38 147.19 398.98 144.69 Z" />
<path fill="#a2a2a2" opacity="1.00" d=" M 501.56 155.74 C 528.66 158.65 555.74 161.69 582.90 163.95 C 585.16 164.98 587.32 166.26 589.23 167.86 C 562.53 166.21 535.90 163.59 509.24 161.54 C 509.14 161.85 508.92 162.46 508.82 162.77 C 506.65 160.19 504.21 157.82 501.56 155.74 Z" />
</g>
<g id="#aaaaaaff">
<path fill="#aaaaaa" opacity="1.00" d=" M 348.60 154.14 C 351.31 151.40 353.53 147.81 357.14 146.20 C 366.08 144.75 375.02 147.09 383.93 147.68 C 389.53 147.99 395.13 148.38 400.73 148.66 C 405.75 155.46 408.55 163.63 410.19 171.85 C 404.56 167.99 397.56 168.33 391.16 166.96 C 383.06 165.14 374.74 164.14 366.87 161.39 C 360.68 159.23 354.22 157.62 348.60 154.14 Z" />
</g>
<g id="#adadadff">
<path fill="#adadad" opacity="1.00" d=" M 405.20 152.99 C 406.44 152.03 407.61 150.92 409.04 150.23 C 413.41 150.10 417.67 151.39 422.02 151.67 C 436.06 152.59 449.99 154.63 464.00 155.93 C 477.35 157.66 490.80 158.48 504.19 159.92 C 509.83 165.35 512.41 173.11 513.47 180.70 C 511.39 181.44 509.15 181.03 507.01 181.00 C 493.33 180.75 479.70 179.69 466.06 178.81 C 459.01 179.01 451.98 178.50 444.99 177.55 C 438.00 176.55 430.90 177.14 423.91 176.15 C 420.12 175.65 416.32 175.41 412.51 175.31 C 411.37 167.54 409.07 159.86 405.20 152.99 Z" />
<path fill="#adadad" opacity="1.00" d=" M 842.98 179.87 C 843.83 179.74 845.52 179.48 846.36 179.34 C 861.91 179.49 877.43 180.63 892.99 180.72 C 908.33 181.71 923.73 181.30 939.08 182.19 C 982.99 183.10 1026.90 184.30 1070.83 184.68 C 1082.73 184.63 1094.60 185.43 1106.51 185.29 C 1100.95 186.58 1095.21 185.98 1089.59 186.67 C 1079.41 186.77 1069.22 186.72 1059.04 186.74 C 1037.05 187.83 1015.01 187.23 993.00 187.50 C 984.53 187.30 976.03 188.03 967.59 187.13 C 961.24 185.23 953.97 188.51 948.18 184.71 C 947.90 185.13 947.33 185.96 947.05 186.38 C 942.35 186.39 937.66 186.58 932.98 186.28 C 923.66 185.37 914.29 187.33 904.98 186.15 C 903.88 185.56 903.23 184.45 902.41 183.58 C 902.03 184.54 901.65 185.51 901.30 186.48 C 894.18 186.25 887.06 186.60 879.95 186.40 C 877.84 186.69 876.66 184.82 875.31 183.59 C 875.03 184.58 874.75 185.57 874.49 186.56 C 865.08 186.52 855.68 186.58 846.27 186.58 C 845.16 184.35 844.06 182.11 842.98 179.87 Z" />
</g>
<g id="#4d4b4c8b">
<path fill="#4d4b4c" opacity="0.55" d=" M 493.77 154.23 C 506.57 155.13 519.27 157.06 532.03 158.30 C 606.51 166.16 681.25 171.27 756.04 175.01 C 762.49 175.26 768.95 175.48 775.36 176.34 C 772.96 176.32 770.58 176.36 768.19 176.39 C 765.96 176.29 763.74 176.12 761.52 175.98 C 726.88 174.16 692.24 172.20 657.62 169.91 C 656.91 169.86 655.48 169.76 654.76 169.71 C 632.59 168.06 610.42 166.40 588.28 164.45 C 586.48 164.27 584.68 164.12 582.90 163.95 C 555.74 161.69 528.66 158.65 501.56 155.74 C 501.02 155.68 499.95 155.56 499.41 155.50 C 499.19 155.48 498.73 155.43 498.50 155.41 C 496.91 155.03 495.35 154.59 493.77 154.23 Z" />
</g>
<g id="#aa4276ff">
<path fill="#aa4276" opacity="1.00" d=" M 499.41 155.50 C 499.95 155.56 501.02 155.68 501.56 155.74 C 504.21 157.82 506.65 160.19 508.82 162.77 C 511.27 166.66 513.31 170.85 514.46 175.32 C 514.78 176.90 515.01 178.51 515.21 180.12 L 513.91 180.56 L 513.47 180.70 C 512.41 173.11 509.83 165.35 504.19 159.92 C 502.63 158.41 501.00 156.97 499.41 155.50 Z" />
</g>
<g id="#939393ff">
<path fill="#939393" opacity="1.00" d=" M 281.40 156.54 C 285.54 157.95 289.46 159.88 293.47 161.61 C 303.57 165.77 314.18 168.46 324.75 171.14 C 347.53 176.39 370.87 178.18 394.03 180.74 C 399.30 181.03 404.59 180.96 409.85 181.45 C 410.16 179.52 410.48 177.60 410.74 175.68 C 411.39 180.45 411.64 185.27 411.41 190.09 C 392.25 190.20 373.05 190.30 353.97 188.16 C 342.72 188.11 331.55 186.77 320.37 185.61 C 310.80 184.83 301.42 182.65 292.00 180.90 C 289.00 180.46 286.23 179.18 283.92 177.24 C 283.68 173.74 283.39 170.24 282.95 166.76 C 282.56 163.34 281.98 159.93 281.40 156.54 Z" />
</g>
<g id="#2f2f2f3f">
<path fill="#2f2f2f" opacity="0.25" d=" M 0.00 158.15 C 0.47 160.42 0.90 162.70 1.01 165.01 C 0.96 166.21 0.91 167.40 0.84 168.60 C 0.54 174.67 0.42 180.75 0.43 186.83 C 0.46 194.91 0.61 202.99 1.16 211.05 C 1.45 216.45 1.49 221.87 1.93 227.26 C 1.49 222.85 1.06 218.44 0.00 214.13 L 0.00 158.15 Z" />
</g>
<g id="#b1b1b1ff">
<path fill="#b1b1b1" opacity="1.00" d=" M 509.24 161.54 C 535.90 163.59 562.53 166.21 589.23 167.86 C 592.31 171.04 594.39 175.07 595.45 179.36 C 581.28 178.62 567.16 176.81 552.96 177.14 C 540.14 176.32 527.31 174.92 514.46 175.32 C 513.31 170.85 511.27 166.66 508.82 162.77 C 508.92 162.46 509.14 161.85 509.24 161.54 Z" />
<path fill="#b1b1b1" opacity="1.00" d=" M 717.58 176.01 C 721.91 174.36 726.53 175.98 731.00 175.86 C 741.55 175.77 752.04 177.58 762.59 176.72 C 764.82 178.42 766.81 180.58 767.49 183.39 C 766.13 185.70 763.25 185.19 761.00 185.33 C 747.86 185.10 734.72 185.33 721.58 185.13 C 721.05 181.79 719.43 178.79 717.58 176.01 Z" />
</g>
<g id="#a7567efe">
<path fill="#a7567e" opacity="1.00" d=" M 582.90 163.95 C 584.68 164.12 586.48 164.27 588.28 164.45 C 589.38 165.70 590.51 166.94 591.59 168.23 C 594.12 171.20 595.94 174.72 597.05 178.46 C 597.58 180.49 597.94 182.59 597.95 184.70 C 597.46 185.93 596.92 187.14 596.44 188.37 C 596.38 187.57 596.24 185.97 596.18 185.16 C 595.96 183.22 595.78 181.28 595.45 179.36 C 594.39 175.07 592.31 171.04 589.23 167.86 C 587.32 166.26 585.16 164.98 582.90 163.95 Z" />
</g>
<g id="#3c3c3cff">
<path fill="#3c3c3c" opacity="1.00" d=" M 134.39 166.86 C 135.32 171.75 135.62 176.72 136.49 181.62 C 138.21 189.93 142.92 197.13 146.31 204.80 C 148.08 208.76 150.85 212.12 153.39 215.59 C 161.01 226.76 173.65 233.67 186.66 236.49 C 194.94 238.55 203.53 237.89 211.97 237.93 C 221.62 237.75 231.38 238.62 240.91 236.66 C 252.35 235.38 263.93 234.81 275.19 232.28 C 274.49 234.54 273.70 236.76 272.80 238.95 C 272.61 239.42 272.21 240.35 272.01 240.82 C 250.24 244.19 228.70 248.94 206.84 251.71 C 201.96 252.77 196.96 252.89 191.99 252.92 C 178.48 253.70 163.68 253.79 152.04 245.87 C 144.18 241.11 138.80 233.33 134.49 225.41 C 133.87 225.96 133.24 226.52 132.62 227.08 C 132.79 225.02 132.95 222.97 133.10 220.92 C 133.36 217.04 133.52 213.15 133.58 209.27 C 134.38 201.26 134.21 193.21 134.27 185.18 C 134.33 179.83 134.20 174.48 133.87 169.14 C 134.00 168.57 134.26 167.43 134.39 166.86 Z" />
</g>
<g id="#86154dff">
<path fill="#86154d" opacity="1.00" d=" M 282.95 166.76 C 283.39 170.24 283.68 173.74 283.92 177.24 C 284.00 178.41 284.09 179.58 284.17 180.76 C 284.22 186.08 284.26 191.41 283.77 196.72 C 283.37 197.46 282.97 198.20 282.56 198.94 C 282.36 198.25 281.96 196.88 281.76 196.19 C 281.70 188.40 281.81 180.60 281.56 172.81 C 281.99 170.79 282.55 168.79 282.95 166.76 Z" />
</g>
<g id="#b5b5b5ff">
<path fill="#b5b5b5" opacity="1.00" d=" M 0.84 168.60 C 11.75 167.10 22.92 167.62 33.78 169.30 C 39.18 169.95 44.67 169.84 50.02 170.94 C 55.00 171.94 60.12 171.76 65.11 172.68 C 73.36 174.32 81.83 174.27 90.13 175.62 C 96.61 176.82 103.24 176.92 109.70 178.31 C 117.26 179.18 124.98 179.41 132.33 181.54 C 133.14 182.66 133.72 183.92 134.27 185.18 C 134.21 193.21 134.38 201.26 133.58 209.27 C 133.52 208.46 133.40 206.85 133.34 206.04 C 133.24 204.69 133.16 203.33 133.11 201.98 C 133.07 200.36 133.07 198.75 133.06 197.14 C 133.03 194.87 132.97 192.61 132.90 190.35 C 125.92 189.72 119.04 188.07 112.01 188.05 C 99.29 187.37 86.61 186.15 73.94 185.00 C 66.25 185.38 58.63 184.52 50.98 183.94 C 38.68 184.41 26.32 183.35 14.06 184.78 C 9.46 185.02 4.82 185.33 0.43 186.83 C 0.42 180.75 0.54 174.67 0.84 168.60 Z" />
</g>
<g id="#b2b2b2ff">
<path fill="#b2b2b2" opacity="1.00" d=" M 591.59 168.23 C 594.73 168.14 597.89 168.05 601.05 168.21 C 619.78 169.64 638.54 170.89 657.30 171.95 C 659.68 174.01 661.63 176.54 662.84 179.46 C 659.76 181.93 655.67 181.28 652.04 180.96 C 640.21 179.29 628.23 181.05 616.38 179.68 C 609.95 178.84 603.41 179.87 597.05 178.46 C 595.94 174.72 594.12 171.20 591.59 168.23 Z" />
<path fill="#b2b2b2" opacity="1.00" d=" M 660.34 172.59 C 666.57 171.78 672.79 173.14 679.04 173.02 C 689.70 173.83 700.39 174.04 711.04 174.95 C 713.01 175.14 714.94 175.63 716.83 176.25 C 718.03 177.78 719.15 179.39 720.05 181.13 C 717.42 183.86 713.41 183.06 710.03 182.86 C 695.03 181.14 679.85 183.18 664.85 181.35 C 664.23 178.05 662.50 175.11 660.34 172.59 Z" />
</g>
<g id="#ac6388ff">
<path fill="#ac6388" opacity="1.00" d=" M 654.76 169.71 C 655.48 169.76 656.91 169.86 657.62 169.91 C 658.52 170.80 659.45 171.67 660.34 172.59 C 662.50 175.11 664.23 178.05 664.85 181.35 L 664.89 181.56 L 664.00 183.22 C 663.61 181.96 663.26 180.70 662.84 179.46 C 661.63 176.54 659.68 174.01 657.30 171.95 C 656.45 171.20 655.60 170.45 654.76 169.71 Z" />
</g>
<g id="#a09e9ffe">
<path fill="#a09e9f" opacity="1.00" d=" M 657.62 169.91 C 692.24 172.20 726.88 174.16 761.52 175.98 L 762.59 176.72 C 752.04 177.58 741.55 175.77 731.00 175.86 C 726.53 175.98 721.91 174.36 717.58 176.01 C 717.39 176.07 717.02 176.19 716.83 176.25 C 714.94 175.63 713.01 175.14 711.04 174.95 C 700.39 174.04 689.70 173.83 679.04 173.02 C 672.79 173.14 666.57 171.78 660.34 172.59 C 659.45 171.67 658.52 170.80 657.62 169.91 Z" />
</g>
<g id="#9b9b9bff">
<path fill="#9b9b9b" opacity="1.00" d=" M 412.51 175.31 C 416.32 175.41 420.12 175.65 423.91 176.15 C 430.90 177.14 438.00 176.55 444.99 177.55 C 451.98 178.50 459.01 179.01 466.06 178.81 C 479.70 179.69 493.33 180.75 507.01 181.00 C 509.15 181.03 511.39 181.44 513.47 180.70 L 513.91 180.56 C 514.03 183.05 514.14 185.55 514.07 188.05 C 497.71 188.11 481.35 187.98 465.00 187.79 C 453.03 186.63 441.00 187.53 429.00 186.92 C 423.78 186.63 418.56 186.78 413.34 186.76 C 413.37 182.93 413.01 179.11 412.51 175.31 Z" />
</g>
<g id="#a6a6a6ff">
<path fill="#a6a6a6" opacity="1.00" d=" M 514.46 175.32 C 527.31 174.92 540.14 176.32 552.96 177.14 C 567.16 176.81 581.28 178.62 595.45 179.36 C 595.78 181.28 595.96 183.22 596.18 185.16 C 577.79 184.56 559.39 185.14 541.01 184.71 C 532.51 183.85 523.97 183.91 515.44 183.92 C 515.39 182.65 515.32 181.38 515.21 180.12 C 515.01 178.51 514.78 176.90 514.46 175.32 Z" />
<path fill="#a6a6a6" opacity="1.00" d=" M 42.77 359.71 C 65.91 342.29 89.81 325.92 114.78 311.21 C 115.16 311.67 115.92 312.59 116.30 313.05 C 114.75 317.87 112.92 322.60 110.95 327.26 C 107.20 327.64 104.34 330.22 101.39 332.30 C 91.06 339.53 81.28 347.53 71.57 355.56 C 66.00 359.99 61.53 365.61 55.85 369.91 C 50.90 367.36 46.50 363.83 42.77 359.71 Z" />
</g>
<g id="#a4748cfb">
<path fill="#a4748c" opacity="1.00" d=" M 761.52 175.98 C 763.74 176.12 765.96 176.29 768.19 176.39 C 767.64 176.43 766.52 176.53 765.96 176.58 C 767.18 179.11 768.46 181.65 769.20 184.38 C 769.19 185.18 769.18 186.77 769.17 187.56 L 768.91 187.19 C 768.38 185.93 767.94 184.66 767.49 183.39 C 766.81 180.58 764.82 178.42 762.59 176.72 L 761.52 175.98 Z" />
</g>
<g id="#828282ff">
<path fill="#828282" opacity="1.00" d=" M 283.92 177.24 C 286.23 179.18 289.00 180.46 292.00 180.90 C 301.42 182.65 310.80 184.83 320.37 185.61 C 331.55 186.77 342.72 188.11 353.97 188.16 C 373.05 190.30 392.25 190.20 411.41 190.09 C 411.29 192.06 411.08 194.03 410.81 195.99 C 410.68 196.87 410.53 197.74 410.38 198.62 C 385.92 199.05 361.46 198.80 337.00 198.86 C 329.20 198.71 321.39 199.16 313.62 198.38 C 305.44 197.51 297.18 197.75 289.01 196.75 C 287.77 196.58 286.51 196.35 285.44 195.68 C 284.52 190.76 284.77 185.72 284.17 180.76 C 284.09 179.58 284.00 178.41 283.92 177.24 Z" />
<path fill="#828282" opacity="1.00" d=" M 1106.51 185.29 C 1132.35 185.26 1158.20 185.88 1184.04 185.81 C 1211.74 186.62 1239.47 186.17 1267.18 186.47 C 1233.89 186.95 1200.59 186.34 1167.31 187.14 C 1153.90 186.33 1140.45 187.22 1127.02 187.02 C 1114.54 186.82 1102.04 187.60 1089.59 186.67 C 1095.21 185.98 1100.95 186.58 1106.51 185.29 Z" />
</g>
<g id="#b0b0b0ff">
<path fill="#b0b0b0" opacity="1.00" d=" M 765.96 176.58 C 766.52 176.53 767.64 176.43 768.19 176.39 C 770.58 176.36 772.96 176.32 775.36 176.34 C 796.24 177.22 817.12 178.22 838.02 178.89 C 839.62 179.58 841.36 180.16 842.65 181.39 C 843.51 182.83 843.75 184.52 844.25 186.10 C 832.75 186.60 821.23 186.39 809.73 186.24 C 809.65 185.08 809.55 183.93 809.44 182.78 C 808.89 181.40 807.80 180.32 806.95 179.13 C 807.39 180.94 807.87 182.73 808.36 184.53 C 802.27 185.30 796.13 184.82 790.01 184.96 C 783.07 184.82 776.11 185.06 769.20 184.38 C 768.46 181.65 767.18 179.11 765.96 176.58 Z" />
</g>
<g id="#a4a4a4ff">
<path fill="#a4a4a4" opacity="1.00" d=" M 597.05 178.46 C 603.41 179.87 609.95 178.84 616.38 179.68 C 628.23 181.05 640.21 179.29 652.04 180.96 C 655.67 181.28 659.76 181.93 662.84 179.46 C 663.26 180.70 663.61 181.96 664.00 183.22 C 663.97 184.54 663.95 185.85 663.92 187.17 C 651.61 186.34 639.29 187.36 626.98 186.83 C 617.31 186.55 607.61 187.35 597.97 186.35 L 597.95 184.70 C 597.94 182.59 597.58 180.49 597.05 178.46 Z" />
</g>
<g id="#858585ff">
<path fill="#858585" opacity="1.00" d=" M 838.02 178.89 C 840.79 179.09 843.57 179.26 846.36 179.34 C 845.52 179.48 843.83 179.74 842.98 179.87 C 844.06 182.11 845.16 184.35 846.27 186.58 C 855.68 186.58 865.08 186.52 874.49 186.56 C 874.75 185.57 875.03 184.58 875.31 183.59 C 876.66 184.82 877.84 186.69 879.95 186.40 C 887.06 186.60 894.18 186.25 901.30 186.48 C 901.65 185.51 902.03 184.54 902.41 183.58 C 903.23 184.45 903.88 185.56 904.98 186.15 C 914.29 187.33 923.66 185.37 932.98 186.28 C 937.66 186.58 942.35 186.39 947.05 186.38 C 947.33 185.96 947.90 185.13 948.18 184.71 C 953.97 188.51 961.24 185.23 967.59 187.13 C 969.64 187.77 971.68 188.70 973.89 188.68 C 982.11 188.55 990.37 188.04 998.57 188.52 C 991.07 189.08 983.42 187.61 976.03 189.57 C 972.55 189.72 969.06 189.58 965.64 188.92 C 963.77 188.54 961.88 188.25 959.99 188.23 C 931.28 188.52 902.56 188.60 873.85 188.88 C 864.21 189.57 854.48 189.81 844.85 188.98 C 837.30 190.25 829.64 189.19 822.06 189.86 C 818.03 190.21 814.00 190.36 809.97 190.20 C 809.88 188.88 809.80 187.56 809.73 186.24 C 821.23 186.39 832.75 186.60 844.25 186.10 C 843.75 184.52 843.51 182.83 842.65 181.39 C 841.36 180.16 839.62 179.58 838.02 178.89 Z" />
</g>
<g id="#999999ff">
<path fill="#999999" opacity="1.00" d=" M 806.95 179.13 C 807.80 180.32 808.89 181.40 809.44 182.78 C 809.30 184.89 809.00 186.99 808.42 189.03 C 801.32 188.23 794.18 188.70 787.06 188.65 C 781.11 188.68 775.16 188.48 769.24 189.05 C 769.22 188.68 769.19 187.93 769.17 187.56 C 769.18 186.77 769.19 185.18 769.20 184.38 C 776.11 185.06 783.07 184.82 790.01 184.96 C 796.13 184.82 802.27 185.30 808.36 184.53 C 807.87 182.73 807.39 180.94 806.95 179.13 Z" />
</g>
<g id="#747474ff">
<path fill="#747474" opacity="1.00" d=" M 284.17 180.76 C 284.77 185.72 284.52 190.76 285.44 195.68 C 286.51 196.35 287.77 196.58 289.01 196.75 C 297.18 197.75 305.44 197.51 313.62 198.38 C 321.39 199.16 329.20 198.71 337.00 198.86 C 361.46 198.80 385.92 199.05 410.38 198.62 C 410.05 200.31 409.73 202.01 409.39 203.71 C 403.58 202.93 397.78 204.18 391.96 204.06 C 386.63 203.95 381.32 204.39 376.02 204.79 C 368.22 205.36 360.37 204.63 352.60 205.55 C 348.10 206.10 343.58 206.10 339.06 205.94 C 332.33 205.69 325.68 207.10 318.95 206.93 C 309.99 206.78 301.03 207.22 292.08 206.77 C 288.98 206.49 285.52 206.43 283.13 204.15 C 283.35 201.67 283.56 199.19 283.77 196.72 C 284.26 191.41 284.22 186.08 284.17 180.76 Z" />
</g>
<g id="#a3a3a3ff">
<path fill="#a3a3a3" opacity="1.00" d=" M 664.85 181.35 C 679.85 183.18 695.03 181.14 710.03 182.86 C 713.41 183.06 717.42 183.86 720.05 181.13 C 720.39 183.02 720.59 184.94 720.67 186.87 C 702.50 186.65 684.34 186.89 666.17 186.82 C 665.84 185.85 665.54 184.88 665.27 183.90 C 665.17 183.31 664.98 182.14 664.89 181.56 L 664.85 181.35 Z" />
</g>
<g id="#7f3459ff">
<path fill="#7f3459" opacity="1.00" d=" M 664.00 183.22 L 664.89 181.56 C 664.98 182.14 665.17 183.31 665.27 183.90 C 665.33 186.35 665.28 188.81 665.12 191.25 C 664.64 192.62 664.04 193.94 663.44 195.26 C 662.92 196.11 662.39 196.95 661.86 197.79 L 661.49 197.19 L 661.77 196.22 C 662.21 194.71 662.70 193.23 663.17 191.73 C 663.54 190.24 663.77 188.70 663.92 187.17 C 663.95 185.85 663.97 184.54 664.00 183.22 Z" />
</g>
<g id="#929292ff">
<path fill="#929292" opacity="1.00" d=" M 767.49 183.39 C 767.94 184.66 768.38 185.93 768.91 187.19 C 767.89 187.96 767.20 188.96 766.85 190.18 C 765.55 189.90 764.26 189.71 762.96 189.61 C 749.02 189.18 735.03 190.37 721.12 189.31 C 721.31 187.92 721.46 186.53 721.58 185.13 C 734.72 185.33 747.86 185.10 761.00 185.33 C 763.25 185.19 766.13 185.70 767.49 183.39 Z" />
</g>
<g id="#535052ff">
<path fill="#535052" opacity="1.00" d=" M 809.44 182.78 C 809.55 183.93 809.65 185.08 809.73 186.24 C 809.80 187.56 809.88 188.88 809.97 190.20 C 814.00 190.36 818.03 190.21 822.06 189.86 C 829.64 189.19 837.30 190.25 844.85 188.98 C 854.48 189.81 864.21 189.57 873.85 188.88 C 902.56 188.60 931.28 188.52 959.99 188.23 C 961.88 188.25 963.77 188.54 965.64 188.92 L 966.65 189.13 C 950.11 189.86 933.53 189.31 916.99 190.19 C 902.97 190.58 888.94 190.37 874.95 191.21 C 864.63 191.53 854.30 191.43 843.99 191.67 C 831.71 192.68 819.36 192.61 807.05 192.47 C 807.51 191.33 807.97 190.18 808.42 189.03 C 809.00 186.99 809.30 184.89 809.44 182.78 Z" />
</g>
<g id="#bdbdbdff">
<path fill="#bdbdbd" opacity="1.00" d=" M 14.06 184.78 C 26.32 183.35 38.68 184.41 50.98 183.94 C 58.63 184.52 66.25 185.38 73.94 185.00 C 86.61 186.15 99.29 187.37 112.01 188.05 C 119.04 188.07 125.92 189.72 132.90 190.35 C 132.97 192.61 133.03 194.87 133.06 197.14 C 121.50 196.32 109.95 195.37 98.40 194.53 C 89.95 193.71 81.42 193.76 73.00 194.89 C 65.88 195.85 58.61 195.68 51.61 197.44 C 34.41 200.39 17.63 205.38 1.16 211.05 C 0.61 202.99 0.46 194.91 0.43 186.83 C 4.82 185.33 9.46 185.02 14.06 184.78 Z" />
</g>
<g id="#949494ff">
<path fill="#949494" opacity="1.00" d=" M 515.44 183.92 C 523.97 183.91 532.51 183.85 541.01 184.71 C 559.39 185.14 577.79 184.56 596.18 185.16 C 596.24 185.97 596.38 187.57 596.44 188.37 C 596.32 189.03 596.08 190.35 595.96 191.01 C 580.63 190.35 565.31 191.47 549.98 191.26 C 538.36 191.05 526.76 191.50 515.15 191.72 C 515.43 189.13 515.49 186.52 515.44 183.92 Z" />
</g>
<g id="#8c8c8cff">
<path fill="#8c8c8c" opacity="1.00" d=" M 665.27 183.90 C 665.54 184.88 665.84 185.85 666.17 186.82 C 684.34 186.89 702.50 186.65 720.67 186.87 C 720.59 187.70 720.42 189.35 720.34 190.18 C 701.95 190.97 683.53 191.43 665.12 191.25 C 665.28 188.81 665.33 186.35 665.27 183.90 Z" />
</g>
<g id="#793155ff">
<path fill="#793155" opacity="1.00" d=" M 596.44 188.37 C 596.92 187.14 597.46 185.93 597.95 184.70 L 597.97 186.35 C 597.90 188.40 597.71 190.45 597.44 192.49 C 596.97 194.46 596.36 196.40 595.60 198.28 C 595.10 198.81 594.60 199.33 594.11 199.85 L 593.05 200.90 C 593.61 199.25 594.19 197.60 594.72 195.93 C 595.21 194.31 595.62 192.67 595.96 191.01 C 596.08 190.35 596.32 189.03 596.44 188.37 Z" />
</g>
<g id="#898a89ff">
<path fill="#898a89" opacity="1.00" d=" M 597.97 186.35 C 607.61 187.35 617.31 186.55 626.98 186.83 C 639.29 187.36 651.61 186.34 663.92 187.17 C 663.77 188.70 663.54 190.24 663.17 191.73 C 649.78 192.52 636.37 192.05 622.99 192.70 C 614.48 192.72 605.88 194.17 597.44 192.49 C 597.71 190.45 597.90 188.40 597.97 186.35 Z" />
</g>
<g id="#77465fff">
<path fill="#77465f" opacity="1.00" d=" M 768.91 187.19 L 769.17 187.56 C 769.19 187.93 769.22 188.68 769.24 189.05 C 769.06 189.74 768.71 191.10 768.53 191.78 C 768.29 191.78 767.81 191.78 767.57 191.78 C 767.39 191.38 767.03 190.58 766.85 190.18 C 767.20 188.96 767.89 187.96 768.91 187.19 Z" />
</g>
<g id="#3c3b3cfc">
<path fill="#3c3b3c" opacity="1.00" d=" M 967.59 187.13 C 976.03 188.03 984.53 187.30 993.00 187.50 C 1015.01 187.23 1037.05 187.83 1059.04 186.74 C 1069.22 186.72 1079.41 186.77 1089.59 186.67 C 1102.04 187.60 1114.54 186.82 1127.02 187.02 C 1140.45 187.22 1153.90 186.33 1167.31 187.14 C 1124.21 187.53 1081.12 188.16 1038.03 188.71 C 1017.37 189.08 996.69 189.94 976.03 189.57 C 983.42 187.61 991.07 189.08 998.57 188.52 C 990.37 188.04 982.11 188.55 973.89 188.68 C 971.68 188.70 969.64 187.77 967.59 187.13 Z" />
</g>
<g id="#6b6b6bff">
<path fill="#6b6b6b" opacity="1.00" d=" M 720.47 192.59 C 720.68 191.49 720.90 190.40 721.12 189.31 C 735.03 190.37 749.02 189.18 762.96 189.61 C 764.26 189.71 765.55 189.90 766.85 190.18 C 767.03 190.58 767.39 191.38 767.57 191.78 C 764.08 192.41 760.54 192.74 756.99 192.65 C 746.67 192.41 736.38 193.50 726.06 193.43 C 724.16 193.40 722.28 193.08 720.47 192.59 Z" />
</g>
<g id="#6c6c6cff">
<path fill="#6c6c6c" opacity="1.00" d=" M 769.24 189.05 C 775.16 188.48 781.11 188.68 787.06 188.65 C 794.18 188.70 801.32 188.23 808.42 189.03 C 807.97 190.18 807.51 191.33 807.05 192.47 L 806.55 192.46 C 793.99 190.37 781.19 192.59 768.53 191.78 C 768.71 191.10 769.06 189.74 769.24 189.05 Z" />
</g>
<g id="#6a6a6aff">
<path fill="#6a6a6a" opacity="1.00" d=" M 665.12 191.25 C 683.53 191.43 701.95 190.97 720.34 190.18 C 720.27 190.71 720.14 191.78 720.08 192.32 C 716.46 194.59 711.99 193.55 707.98 194.01 C 696.46 195.00 684.88 194.21 673.38 195.39 C 670.07 195.67 666.74 195.55 663.44 195.26 C 664.04 193.94 664.64 192.62 665.12 191.25 Z" />
</g>
<g id="#797979ff">
<path fill="#797979" opacity="1.00" d=" M 515.15 191.72 C 526.76 191.50 538.36 191.05 549.98 191.26 C 565.31 191.47 580.63 190.35 595.96 191.01 C 595.62 192.67 595.21 194.31 594.72 195.93 C 570.48 197.00 546.25 197.92 522.02 199.09 C 519.75 199.17 517.48 199.08 515.22 198.85 C 515.07 198.37 514.76 197.42 514.61 196.94 C 514.71 195.83 514.82 194.72 514.93 193.61 C 514.99 193.14 515.09 192.20 515.15 191.72 Z" />
</g>
<g id="#484848ff">
<path fill="#484848" opacity="1.00" d=" M 707.98 194.01 C 711.99 193.55 716.46 194.59 720.08 192.32 L 720.47 192.59 C 722.28 193.08 724.16 193.40 726.06 193.43 C 736.38 193.50 746.67 192.41 756.99 192.65 C 760.54 192.74 764.08 192.41 767.57 191.78 C 767.81 191.78 768.29 191.78 768.53 191.78 C 781.19 192.59 793.99 190.37 806.55 192.46 C 802.76 193.16 798.92 193.59 795.07 193.51 C 786.69 193.37 778.35 194.58 769.97 194.42 C 760.63 194.26 751.34 195.62 742.00 195.47 C 735.65 195.28 729.36 196.49 723.02 196.26 C 715.31 195.54 707.69 197.58 699.98 197.41 C 691.62 197.23 683.33 198.49 674.98 198.48 C 670.96 198.53 666.95 198.96 662.97 199.44 C 662.69 199.03 662.14 198.21 661.86 197.79 C 662.39 196.95 662.92 196.11 663.44 195.26 C 666.74 195.55 670.07 195.67 673.38 195.39 C 684.88 194.21 696.46 195.00 707.98 194.01 Z" />
</g>
<g id="#71264bff">
<path fill="#71264b" opacity="1.00" d=" M 513.33 194.05 C 513.45 193.52 513.70 192.48 513.82 191.95 L 514.93 193.61 C 514.82 194.72 514.71 195.83 514.61 196.94 C 513.94 199.24 513.07 201.48 512.20 203.71 C 512.03 203.18 511.69 202.12 511.53 201.59 C 511.69 200.78 511.86 199.98 512.06 199.17 C 512.45 197.46 512.89 195.75 513.33 194.05 Z" />
</g>
<g id="#c6c6c6ff">
<path fill="#c6c6c6" opacity="1.00" d=" M 73.00 194.89 C 81.42 193.76 89.95 193.71 98.40 194.53 C 109.95 195.37 121.50 196.32 133.06 197.14 C 133.07 198.75 133.07 200.36 133.11 201.98 C 122.07 200.96 111.13 198.53 100.00 198.94 C 93.98 199.07 87.96 198.78 81.94 199.03 C 67.59 200.13 53.02 203.73 41.07 212.05 C 35.42 216.70 30.36 222.08 25.92 227.89 C 21.06 234.00 15.29 239.28 9.65 244.65 C 5.77 248.09 5.80 253.54 5.55 258.30 C 3.93 248.00 2.84 237.64 1.93 227.26 C 1.49 221.87 1.45 216.45 1.16 211.05 C 17.63 205.38 34.41 200.39 51.61 197.44 C 58.61 195.68 65.88 195.85 73.00 194.89 Z" />
</g>
<g id="#73214aff">
<path fill="#73214a" opacity="1.00" d=" M 410.81 195.99 C 411.37 195.76 412.49 195.29 413.04 195.06 C 412.62 197.86 412.19 200.66 411.58 203.43 C 411.23 204.80 410.82 206.15 410.43 207.50 L 408.67 207.02 C 408.85 206.19 409.21 204.54 409.39 203.71 C 409.73 202.01 410.05 200.31 410.38 198.62 C 410.53 197.74 410.68 196.87 410.81 195.99 Z" />
</g>
<g id="#6e0038ff">
<path fill="#6e0038" opacity="1.00" d=" M 281.57 195.63 L 281.76 196.19 C 281.96 196.88 282.36 198.25 282.56 198.94 C 282.97 198.20 283.37 197.46 283.77 196.72 C 283.56 199.19 283.35 201.67 283.13 204.15 C 282.94 206.02 282.71 207.90 282.51 209.77 C 281.91 213.63 281.06 217.44 280.34 221.27 C 279.94 220.03 279.54 218.80 279.14 217.56 C 279.20 217.14 279.31 216.31 279.37 215.89 C 279.87 212.22 280.44 208.57 280.87 204.90 C 281.22 201.82 281.50 198.73 281.57 195.63 Z" />
</g>
<g id="#464646ff">
<path fill="#464646" opacity="1.00" d=" M 625.06 197.54 C 637.27 196.65 649.52 196.38 661.77 196.22 L 661.49 197.19 C 660.67 197.91 659.80 198.54 658.87 199.08 C 648.98 200.50 638.95 200.11 629.03 201.14 C 617.05 201.74 605.07 202.40 593.12 203.36 C 593.43 202.18 593.76 201.01 594.11 199.85 C 594.60 199.33 595.10 198.81 595.60 198.28 C 605.43 199.42 615.21 197.20 625.06 197.54 Z" />
</g>
<g id="#cfcfcfff">
<path fill="#cfcfcf" opacity="1.00" d=" M 41.07 212.05 C 53.02 203.73 67.59 200.13 81.94 199.03 C 87.96 198.78 93.98 199.07 100.00 198.94 C 111.13 198.53 122.07 200.96 133.11 201.98 C 133.16 203.33 133.24 204.69 133.34 206.04 C 124.40 205.62 115.61 203.68 106.65 203.45 C 94.38 202.21 82.03 203.91 70.18 207.13 C 64.47 208.81 59.21 211.86 54.68 215.69 C 48.38 221.11 47.90 232.11 54.48 237.53 C 61.83 243.45 72.00 243.69 81.00 243.16 C 95.86 241.55 110.50 237.93 124.47 232.64 C 126.83 231.72 129.37 231.02 131.39 229.43 C 132.29 227.25 132.08 224.82 132.20 222.53 C 132.20 222.12 132.21 221.30 132.21 220.89 L 133.10 220.92 C 132.95 222.97 132.79 225.02 132.62 227.08 C 132.08 233.88 131.24 240.67 130.52 247.46 C 129.74 253.83 128.73 260.16 127.64 266.49 C 120.15 268.38 113.51 272.50 106.47 275.55 C 93.75 280.94 81.27 286.92 68.16 291.31 C 55.33 296.21 41.90 300.92 27.96 300.09 C 22.80 300.02 17.97 298.03 13.22 296.24 C 9.96 283.74 7.42 271.07 5.55 258.30 C 5.80 253.54 5.77 248.09 9.65 244.65 C 15.29 239.28 21.06 234.00 25.92 227.89 C 30.36 222.08 35.42 216.70 41.07 212.05 Z" />
</g>
<g id="#5e5e5eff">
<path fill="#5e5e5e" opacity="1.00" d=" M 495.04 200.01 C 500.70 199.52 506.37 199.07 512.06 199.17 C 511.86 199.98 511.69 200.78 511.53 201.59 C 510.98 202.76 510.42 203.91 509.83 205.06 C 476.51 206.82 443.25 209.75 410.03 212.88 C 409.95 212.14 409.79 210.67 409.71 209.93 C 409.89 209.32 410.25 208.11 410.43 207.50 C 410.82 206.15 411.23 204.80 411.58 203.43 C 414.85 203.77 418.14 203.79 421.41 203.50 C 445.97 202.71 470.47 200.59 495.04 200.01 Z" />
</g>
<g id="#393939ff">
<path fill="#393939" opacity="1.00" d=" M 579.68 201.42 C 583.99 201.02 588.33 200.78 592.64 201.36 C 591.46 202.43 590.62 204.29 588.82 204.36 C 579.38 205.64 569.82 205.47 560.35 206.44 C 547.23 207.46 534.12 208.52 521.02 209.73 C 516.93 210.19 512.83 210.58 508.72 210.32 C 509.73 208.75 510.69 207.16 511.51 205.49 C 514.69 205.58 517.87 205.60 521.04 205.32 C 540.57 203.69 560.12 202.56 579.68 201.42 Z" />
</g>
<g id="#46162eff">
<path fill="#46162e" opacity="1.00" d=" M 511.53 201.59 C 511.69 202.12 512.03 203.18 512.20 203.71 C 512.03 204.16 511.69 205.04 511.51 205.49 C 510.69 207.16 509.73 208.75 508.72 210.32 C 508.26 210.31 507.33 210.30 506.86 210.30 C 507.86 208.55 508.88 206.82 509.83 205.06 C 510.42 203.91 510.98 202.76 511.53 201.59 Z" />
</g>
<g id="#e5e5e5ff">
<path fill="#e5e5e5" opacity="1.00" d=" M 70.18 207.13 C 82.03 203.91 94.38 202.21 106.65 203.45 C 115.61 203.68 124.40 205.62 133.34 206.04 C 133.40 206.85 133.52 208.46 133.58 209.27 C 133.52 213.15 133.36 217.04 133.10 220.92 L 132.21 220.89 C 131.99 218.51 132.60 215.77 131.49 213.61 C 127.81 211.41 123.51 210.57 119.38 209.64 C 105.60 207.14 91.15 206.76 77.58 210.62 C 73.09 211.96 68.55 213.78 65.11 217.06 C 62.50 219.82 60.56 224.04 62.17 227.79 C 64.13 232.64 69.48 234.94 74.37 235.53 C 87.82 236.95 101.36 234.26 114.12 230.12 C 120.37 228.14 126.15 225.01 132.20 222.53 C 132.08 224.82 132.29 227.25 131.39 229.43 C 129.37 231.02 126.83 231.72 124.47 232.64 C 110.50 237.93 95.86 241.55 81.00 243.16 C 72.00 243.69 61.83 243.45 54.48 237.53 C 47.90 232.11 48.38 221.11 54.68 215.69 C 59.21 211.86 64.47 208.81 70.18 207.13 Z" />
</g>
<g id="#676767ff">
<path fill="#676767" opacity="1.00" d=" M 391.96 204.06 C 397.78 204.18 403.58 202.93 409.39 203.71 C 409.21 204.54 408.85 206.19 408.67 207.02 C 408.59 207.35 408.41 208.01 408.33 208.34 C 394.50 207.68 380.77 210.05 366.96 210.39 C 347.33 212.09 327.63 212.64 307.99 214.22 C 299.67 214.20 291.35 214.43 283.03 214.10 C 282.83 212.66 282.66 211.22 282.51 209.77 C 282.71 207.90 282.94 206.02 283.13 204.15 C 285.52 206.43 288.98 206.49 292.08 206.77 C 301.03 207.22 309.99 206.78 318.95 206.93 C 325.68 207.10 332.33 205.69 339.06 205.94 C 343.58 206.10 348.10 206.10 352.60 205.55 C 360.37 204.63 368.22 205.36 376.02 204.79 C 381.32 204.39 386.63 203.95 391.96 204.06 Z" />
</g>
<g id="#424242ff">
<path fill="#424242" opacity="1.00" d=" M 410.03 212.88 C 443.25 209.75 476.51 206.82 509.83 205.06 C 508.88 206.82 507.86 208.55 506.86 210.30 C 481.17 212.13 455.56 215.26 429.94 217.91 C 421.74 218.71 413.62 220.47 405.36 220.46 C 407.07 217.06 408.49 213.53 409.71 209.93 C 409.79 210.67 409.95 212.14 410.03 212.88 Z" />
</g>
<g id="#44112aff">
<path fill="#44112a" opacity="1.00" d=" M 408.67 207.02 L 410.43 207.50 C 410.25 208.11 409.89 209.32 409.71 209.93 C 408.49 213.53 407.07 217.06 405.36 220.46 C 404.08 222.11 402.60 223.68 400.70 224.61 C 401.41 223.27 402.13 221.95 402.87 220.62 C 404.01 218.55 405.15 216.46 406.14 214.30 C 406.97 212.35 407.71 210.36 408.33 208.34 C 408.41 208.01 408.59 207.35 408.67 207.02 Z" />
</g>
<g id="#ffffffff">
<path fill="#ffffff" opacity="1.00" d=" M 77.58 210.62 C 91.15 206.76 105.60 207.14 119.38 209.64 C 123.51 210.57 127.81 211.41 131.49 213.61 C 132.60 215.77 131.99 218.51 132.21 220.89 C 132.21 221.30 132.20 222.12 132.20 222.53 C 126.15 225.01 120.37 228.14 114.12 230.12 C 101.36 234.26 87.82 236.95 74.37 235.53 C 69.48 234.94 64.13 232.64 62.17 227.79 C 60.56 224.04 62.50 219.82 65.11 217.06 C 68.55 213.78 73.09 211.96 77.58 210.62 Z" />
</g>
<g id="#575757ff">
<path fill="#575757" opacity="1.00" d=" M 366.96 210.39 C 380.77 210.05 394.50 207.68 408.33 208.34 C 407.71 210.36 406.97 212.35 406.14 214.30 C 388.47 216.56 370.69 217.91 353.01 220.19 C 341.66 221.45 330.34 223.07 318.95 223.99 C 305.52 225.61 292.11 227.33 278.67 228.83 C 279.41 226.35 279.94 223.82 280.34 221.27 C 281.06 217.44 281.91 213.63 282.51 209.77 C 282.66 211.22 282.83 212.66 283.03 214.10 C 291.35 214.43 299.67 214.20 307.99 214.22 C 327.63 212.64 347.33 212.09 366.96 210.39 Z" />
</g>
<g id="#3f3f3fff">
<path fill="#3f3f3f" opacity="1.00" d=" M 353.01 220.19 C 370.69 217.91 388.47 216.56 406.14 214.30 C 405.15 216.46 404.01 218.55 402.87 220.62 C 384.58 222.95 366.32 225.48 348.09 228.23 C 328.62 230.93 309.36 234.92 289.91 237.72 C 284.86 238.52 279.91 239.93 274.80 240.34 C 275.98 236.47 277.41 232.67 278.67 228.83 C 292.11 227.33 305.52 225.61 318.95 223.99 C 330.34 223.07 341.66 221.45 353.01 220.19 Z" />
</g>
<g id="#4a0d2bff">
<path fill="#4a0d2b" opacity="1.00" d=" M 279.14 217.56 C 279.54 218.80 279.94 220.03 280.34 221.27 C 279.94 223.82 279.41 226.35 278.67 228.83 C 277.41 232.67 275.98 236.47 274.80 240.34 L 274.17 240.09 C 273.83 239.81 273.14 239.24 272.80 238.95 C 273.70 236.76 274.49 234.54 275.19 232.28 C 275.98 229.58 276.69 226.85 277.43 224.14 C 278.01 221.95 278.63 219.77 279.14 217.56 Z" />
</g>
<g id="#292929ff">
<path fill="#292929" opacity="1.00" d=" M 348.09 228.23 C 366.32 225.48 384.58 222.95 402.87 220.62 C 402.13 221.95 401.41 223.27 400.70 224.61 C 384.20 227.76 367.50 229.73 350.99 232.82 C 334.37 235.61 317.85 238.93 301.34 242.28 C 291.16 244.28 281.15 247.10 270.92 248.87 C 271.91 245.91 273.10 243.02 274.17 240.09 L 274.80 240.34 C 279.91 239.93 284.86 238.52 289.91 237.72 C 309.36 234.92 328.62 230.93 348.09 228.23 Z" />
</g>
<g id="#2e2e2eff">
<path fill="#2e2e2e" opacity="1.00" d=" M 132.62 227.08 C 133.24 226.52 133.87 225.96 134.49 225.41 C 138.80 233.33 144.18 241.11 152.04 245.87 C 163.68 253.79 178.48 253.70 191.99 252.92 C 196.96 252.89 201.96 252.77 206.84 251.71 C 228.70 248.94 250.24 244.19 272.01 240.82 C 271.09 242.87 270.19 244.93 269.20 246.94 C 262.21 247.24 255.44 249.09 248.63 250.52 C 227.12 255.26 205.72 260.57 183.99 264.16 C 173.44 265.17 162.63 267.65 152.15 264.77 C 142.86 262.78 133.25 257.14 130.52 247.46 C 131.24 240.67 132.08 233.88 132.62 227.08 Z" />
</g>
<g id="#212121ff">
<path fill="#212121" opacity="1.00" d=" M 248.63 250.52 C 255.44 249.09 262.21 247.24 269.20 246.94 C 267.35 252.22 261.21 252.52 256.59 253.59 C 228.64 260.57 201.03 268.80 173.17 276.14 C 166.47 277.38 159.82 279.04 153.04 279.80 C 144.99 279.88 136.48 280.93 128.96 277.35 C 128.18 275.76 127.39 274.17 126.59 272.60 C 126.96 270.56 127.30 268.52 127.64 266.49 C 128.73 260.16 129.74 253.83 130.52 247.46 C 133.25 257.14 142.86 262.78 152.15 264.77 C 162.63 267.65 173.44 265.17 183.99 264.16 C 205.72 260.57 227.12 255.26 248.63 250.52 Z" />
</g>
<g id="#c7c7c7ff">
<path fill="#c7c7c7" opacity="1.00" d=" M 106.47 275.55 C 113.51 272.50 120.15 268.38 127.64 266.49 C 127.30 268.52 126.96 270.56 126.59 272.60 C 124.81 282.23 122.49 291.75 119.92 301.20 C 120.38 298.16 120.39 295.09 120.21 292.04 C 92.13 305.06 65.66 321.25 37.89 334.88 C 34.95 336.40 31.84 337.54 28.70 338.56 C 21.90 325.12 17.02 310.79 13.22 296.24 C 17.97 298.03 22.80 300.02 27.96 300.09 C 41.90 300.92 55.33 296.21 68.16 291.31 C 81.27 286.92 93.75 280.94 106.47 275.55 Z" />
</g>
<g id="#b7b7b7ff">
<path fill="#b7b7b7" opacity="1.00" d=" M 37.89 334.88 C 65.66 321.25 92.13 305.06 120.21 292.04 C 120.39 295.09 120.38 298.16 119.92 301.20 C 118.87 305.19 117.55 309.11 116.30 313.05 C 115.92 312.59 115.16 311.67 114.78 311.21 C 89.81 325.92 65.91 342.29 42.77 359.71 C 37.12 353.37 32.50 346.15 28.70 338.56 C 31.84 337.54 34.95 336.40 37.89 334.88 Z" />
</g>
<g id="#959595ff">
<path fill="#959595" opacity="1.00" d=" M 101.39 332.30 C 104.34 330.22 107.20 327.64 110.95 327.26 C 109.64 330.53 108.18 333.74 106.60 336.89 C 104.27 337.60 101.98 338.54 100.14 340.18 C 90.70 348.02 80.92 355.55 72.44 364.46 C 69.62 367.06 66.44 369.30 64.21 372.49 C 61.33 371.99 58.52 371.08 55.85 369.91 C 61.53 365.61 66.00 359.99 71.57 355.56 C 81.28 347.53 91.06 339.53 101.39 332.30 Z" />
</g>
<g id="#878787ff">
<path fill="#878787" opacity="1.00" d=" M 100.14 340.18 C 101.98 338.54 104.27 337.60 106.60 336.89 C 104.80 340.68 102.74 344.36 100.44 347.87 C 95.11 349.58 92.28 354.69 88.12 358.04 C 83.54 361.88 79.00 365.92 75.81 371.05 C 72.13 372.47 68.13 372.86 64.21 372.49 C 66.44 369.30 69.62 367.06 72.44 364.46 C 80.92 355.55 90.70 348.02 100.14 340.18 Z" />
</g>
<g id="#757575ff">
<path fill="#757575" opacity="1.00" d=" M 88.12 358.04 C 92.28 354.69 95.11 349.58 100.44 347.87 C 98.89 350.34 97.41 352.85 95.84 355.31 C 90.05 361.53 84.08 368.19 75.81 371.05 C 79.00 365.92 83.54 361.88 88.12 358.04 Z" />
</g>
</svg>
